<?xml version="1.0" encoding="utf-8"?>
<!-- Generator: Adobe Illustrator 24.0.2, SVG Export Plug-In . SVG Version: 6.00 Build 0)  -->
<svg version="1.1" xmlns="http://www.w3.org/2000/svg" xmlns:xlink="http://www.w3.org/1999/xlink" x="0px" y="0px"
	 viewBox="0 0 332.5 261" style="enable-background:new 0 0 332.5 261;" xml:space="preserve">
<style type="text/css">
	.st0{fill:url(#SVGID_1_);}
	.st1{fill:url(#SVGID_2_);}
	.st2{fill:url(#SVGID_3_);}
	.st3{fill:url(#SVGID_4_);}
	.st4{fill:url(#SVGID_5_);}
	.st5{fill:url(#SVGID_6_);}
	.st6{fill:url(#SVGID_7_);}
	.st7{fill:url(#SVGID_8_);}
	.st8{fill:url(#SVGID_9_);}
	.st9{fill:url(#SVGID_10_);}
	.st10{fill:url(#SVGID_11_);}
	.st11{fill:url(#SVGID_12_);}
	.st12{fill:url(#SVGID_13_);}
	.st13{fill:url(#SVGID_14_);}
	.st14{fill:url(#SVGID_15_);}
	.st15{fill:url(#SVGID_16_);}
	.st16{fill:url(#SVGID_17_);}
	.st17{fill:url(#SVGID_18_);}
</style>
<g id="_x32_0">
</g>
<g id="_x31_9">
</g>
<g id="_x31_8">
</g>
<g id="_x31_7">
</g>
<g id="_x31_6">
</g>
<g id="_x31_5">
</g>
<g id="_x31_4">
</g>
<g id="_x31_3">
</g>
<g id="_x31_2">
</g>
<g id="_x31_0">
</g>
<g id="_x30_9">
</g>
<g id="_x30_8">
</g>
<g id="_x30_7">
</g>
<g id="_x30_6">
</g>
<g id="_x30_4">
</g>
<g id="_x30_3">
</g>
<g id="_x30_2">
</g>
<g id="_x30_1">
	<g>
		<g>
			<g>
				<linearGradient id="SVGID_1_" gradientUnits="userSpaceOnUse" x1="85.9274" y1="149.7365" x2="186.5815" y2="78.0204">
					<stop  offset="0" style="stop-color:#03B5B8"/>
					<stop  offset="1" style="stop-color:#07D896"/>
				</linearGradient>
				<path class="st0" d="M163.4,6.1c-50.3,0-91.1,40.9-91.1,91.1c0,19.4,6,37.9,17.4,53.5c1.2,1.6,3,2.6,5,2.6c0,0,0.1,0,0.1,0
					c9.4,0,15.3-9.2,22.8-20.8c10.1-15.7,22.6-35.1,45.8-35.1c23.4,0,35.8,19.5,45.8,35.1c7.2,11.2,13.4,20.9,22.9,20.9
					c2,0,3.9-1,5.1-2.6c11.4-15.6,17.4-34.1,17.4-53.5C254.6,47,213.7,6.1,163.4,6.1z M163.4,84.8c-12.4,0-22.2,4-30.2,9.9
					c1.3-15.6,14.4-27.8,30.2-27.8c15.9,0,28.9,12.2,30.2,27.8C185.6,88.8,175.8,84.8,163.4,84.8z M214.1,117
					c-2.6-3.8-5.4-7.6-8.6-11.3c0.6-2.8,0.8-5.6,0.8-8.4c0-23.7-19.3-43-43-43c-23.7,0-43,19.3-43,43c0,2.8,0.3,5.7,0.9,8.5
					c-3.2,3.7-6,7.5-8.6,11.3c-2.4-6.3-3.7-13-3.7-19.8c0-30,24.4-54.5,54.5-54.5s54.5,24.4,54.5,54.5
					C217.9,104,216.6,110.7,214.1,117z M229.7,139.3c-2.2-2.1-5-6.2-7.5-10c5.4-9.8,8.2-20.8,8.2-32.1c0-37-30.1-67-67-67
					s-67,30.1-67,67c0,11.3,2.9,22.3,8.2,32.1c-2.5,3.8-5.3,7.9-7.5,10c-8-12.6-12.2-27-12.2-42.1c0-43.3,35.2-78.6,78.6-78.6
					S242,53.9,242,97.2C242,112.3,237.8,126.8,229.7,139.3z"/>
				<linearGradient id="SVGID_2_" gradientUnits="userSpaceOnUse" x1="114.6838" y1="190.0965" x2="215.338" y2="118.3804">
					<stop  offset="0" style="stop-color:#03B5B8"/>
					<stop  offset="1" style="stop-color:#07D896"/>
				</linearGradient>
				<path class="st1" d="M196.4,133.1c-12.6-22.3-25.9-23.4-31.2-23.9c-1.2-0.1-2.3-0.1-3.5,0c-5.5,0.6-18.6,1.6-31.2,23.9
					c-11.5,20.3-28,31.8-28.1,31.9l3.9,2.1c5.2,2.8,11.7,1.9,15.8-2.3c5.1-5,12.4-13,19.2-25.2c10.7-19.3,21.9-18.1,22.3-18.1l0,0
					c0.4,0,10.8-0.7,21.9,18.1c7.1,12.1,14.1,20.2,19.2,25.2c4.2,4.2,10.6,5.1,15.8,2.3l3.9-2.1
					C224.4,164.9,207.8,153.3,196.4,133.1z"/>
			</g>
			<linearGradient id="SVGID_3_" gradientUnits="userSpaceOnUse" x1="137.6503" y1="116.1412" x2="137.6503" y2="116.1412">
				<stop  offset="0" style="stop-color:#03B5B8"/>
				<stop  offset="1" style="stop-color:#07D896"/>
			</linearGradient>
			<path class="st2" d="M137.7,116.1"/>
			<linearGradient id="SVGID_4_" gradientUnits="userSpaceOnUse" x1="121.1485" y1="199.1697" x2="221.8026" y2="127.4536">
				<stop  offset="0" style="stop-color:#03B5B8"/>
				<stop  offset="1" style="stop-color:#07D896"/>
			</linearGradient>
			<path class="st3" d="M167.1,132.6c-2.8-4-6.5-1.2-7.1,0c-13.1,21.5-28.4,39-36.3,47.3c21.5,9.9,39.8-29,39.8-29h0.2
				c0,0,18.3,38.8,39.8,29C195.5,171.6,180.2,154.1,167.1,132.6z"/>
		</g>
		<g>
			<linearGradient id="SVGID_5_" gradientUnits="userSpaceOnUse" x1="10.4119" y1="231.1863" x2="349.4119" y2="213.1863">
				<stop  offset="0" style="stop-color:#03B5B8"/>
				<stop  offset="1" style="stop-color:#07D896"/>
			</linearGradient>
			<path class="st4" d="M10.5,210.1h8.2v41.7h-8.2V210.1z"/>
			<linearGradient id="SVGID_6_" gradientUnits="userSpaceOnUse" x1="10.4766" y1="232.4044" x2="349.4766" y2="214.4044">
				<stop  offset="0" style="stop-color:#03B5B8"/>
				<stop  offset="1" style="stop-color:#07D896"/>
			</linearGradient>
			<path class="st5" d="M35.3,251.8L31,231.1h-0.2l0.4,5.5v15.1h-8.2v-41.7H33l4.5,23.9h0.2l4.5-23.9h10.1v41.7h-8.2v-15.1l0.4-5.5
				h-0.2l-4.3,20.7H35.3z"/>
			<linearGradient id="SVGID_7_" gradientUnits="userSpaceOnUse" x1="10.5413" y1="233.6227" x2="349.5413" y2="215.6227">
				<stop  offset="0" style="stop-color:#03B5B8"/>
				<stop  offset="1" style="stop-color:#07D896"/>
			</linearGradient>
			<path class="st6" d="M56.5,251.8v-41.7H69c3,0,5.4,1.1,6.7,2.5c1.7,1.9,1.6,4.8,1.6,6.6v6.3c0,1.9,0.1,4.9-1.7,6.9
				c-1.8,2-4.8,2.1-7,2.2c-1.5,0.1-2.4,0.1-3.9-0.3v17.5H56.5z M66.8,228.5c0.9,0,1.5-0.2,2-1.2c0.1-0.3,0.3-1,0.3-2.9v-4.7
				c0-1.5-0.2-2.3-0.5-2.8c-0.3-0.5-0.9-0.9-1.7-0.9h-2.1v12.5H66.8z"/>
			<linearGradient id="SVGID_8_" gradientUnits="userSpaceOnUse" x1="10.6281" y1="235.2574" x2="349.6281" y2="217.2574">
				<stop  offset="0" style="stop-color:#03B5B8"/>
				<stop  offset="1" style="stop-color:#07D896"/>
			</linearGradient>
			<path class="st7" d="M93.5,251.8c-0.5-0.8-1.1-2.2-1.1-4.9v-10c0-0.7,0.1-2-0.6-2.7c-0.4-0.4-1.4-0.7-2.1-0.7h-1.1v18.2h-8.3
				l0.1-41.7h13.8c1.4,0,4.1,0.2,5.8,2.6c1,1.4,1.1,2.7,1.1,4.1v8.5c0,1.1-0.2,2.6-2,3.6c-0.8,0.4-2.6,1-3.4,1.1v0.4
				c0.4,0.1,2,0.7,2.9,1.3c2.3,1.5,2.1,3.9,2.1,5.3v8.9c0,3.9,0.3,5,2.1,5.5v0.4H93.5z M90.2,227.3c0.7,0,1.3-0.1,1.8-0.6
				c0.8-0.8,0.8-1.9,0.8-2.7v-4.8c0-1.3-0.2-1.9-0.4-2.2c-0.5-1.1-1.3-1.1-2-1.1h-2v11.4H90.2z"/>
			<linearGradient id="SVGID_9_" gradientUnits="userSpaceOnUse" x1="10.6947" y1="236.5119" x2="349.6947" y2="218.5119">
				<stop  offset="0" style="stop-color:#03B5B8"/>
				<stop  offset="1" style="stop-color:#07D896"/>
			</linearGradient>
			<path class="st8" d="M105.4,210.1H124v5.8h-10.4v10h7.9v5.8h-7.9V246H125v5.8h-19.6V210.1z"/>
			<linearGradient id="SVGID_10_" gradientUnits="userSpaceOnUse" x1="10.7565" y1="237.6754" x2="349.7565" y2="219.6754">
				<stop  offset="0" style="stop-color:#03B5B8"/>
				<stop  offset="1" style="stop-color:#07D896"/>
			</linearGradient>
			<path class="st9" d="M134.7,238.6v3.1c0,2.3,0.2,3.1,0.4,3.5c0.3,0.7,0.8,1.4,2,1.4c1,0,1.5-0.5,1.7-1.3c0.2-0.7,0.2-2.5,0.2-2.8
				v-1.6c0-2.9-0.8-4.2-2.4-5.7l-5.7-5.4c-1.1-1.1-2.2-2.4-2.9-3.7c-1.2-2.3-1.3-4.6-1.3-6.6v-1.6c0-2.4,1.2-4.6,2.4-5.9
				c2.4-2.3,5.8-2.4,7.8-2.4c2.4,0,5.4,0.4,7.6,2.4c2.6,2.4,2.6,5.2,2.6,8.1v2.6h-8v-2.5c0-2.2,0-3.3-0.4-3.9
				c-0.2-0.3-0.7-0.8-1.7-0.8c-0.7,0-1.2,0.2-1.6,0.8c-0.7,0.8-0.6,1.4-0.6,2.4v1c0,2.4,1.4,4.1,2.5,5.1l4.8,4.6
				c2.6,2.5,5,4.2,5,10.9v2.4c0,2.3,0.1,5-2.6,7.6c-2,1.9-4.3,2.4-7.2,2.4c-2.1,0-4.7-0.4-7.1-1.9c-3.5-2.3-3.9-5.6-3.9-8.7v-3.2
				H134.7z"/>
			<linearGradient id="SVGID_11_" gradientUnits="userSpaceOnUse" x1="10.8215" y1="238.8999" x2="349.8215" y2="220.8999">
				<stop  offset="0" style="stop-color:#03B5B8"/>
				<stop  offset="1" style="stop-color:#07D896"/>
			</linearGradient>
			<path class="st10" d="M157.8,238.6v3.1c0,2.3,0.2,3.1,0.4,3.5c0.3,0.7,0.8,1.4,2,1.4c1,0,1.5-0.5,1.7-1.3
				c0.2-0.7,0.2-2.5,0.2-2.8v-1.6c0-2.9-0.8-4.2-2.4-5.7l-5.7-5.4c-1.1-1.1-2.2-2.4-2.9-3.7c-1.2-2.3-1.3-4.6-1.3-6.6v-1.6
				c0-2.4,1.2-4.6,2.4-5.9c2.4-2.3,5.8-2.4,7.8-2.4c2.4,0,5.4,0.4,7.6,2.4c2.6,2.4,2.6,5.2,2.6,8.1v2.6h-8v-2.5c0-2.2,0-3.3-0.4-3.9
				c-0.2-0.3-0.7-0.8-1.7-0.8c-0.7,0-1.2,0.2-1.6,0.8c-0.7,0.8-0.6,1.4-0.6,2.4v1c0,2.4,1.4,4.1,2.5,5.1l4.8,4.6
				c2.6,2.5,5,4.2,5,10.9v2.4c0,2.3,0.1,5-2.6,7.6c-2,1.9-4.3,2.4-7.2,2.4c-2.1,0-4.7-0.4-7.1-1.9c-3.5-2.3-3.9-5.6-3.9-8.7v-3.2
				H157.8z"/>
			<linearGradient id="SVGID_12_" gradientUnits="userSpaceOnUse" x1="10.8706" y1="239.8241" x2="349.8706" y2="221.8241">
				<stop  offset="0" style="stop-color:#03B5B8"/>
				<stop  offset="1" style="stop-color:#07D896"/>
			</linearGradient>
			<path class="st11" d="M173.6,210.1h8.2v41.7h-8.2V210.1z"/>
			<linearGradient id="SVGID_13_" gradientUnits="userSpaceOnUse" x1="10.9225" y1="240.8025" x2="349.9225" y2="222.8025">
				<stop  offset="0" style="stop-color:#03B5B8"/>
				<stop  offset="1" style="stop-color:#07D896"/>
			</linearGradient>
			<path class="st12" d="M206.6,242.6c0,2.6-0.2,5.1-2.7,7.3c-2.3,2-5.3,2.4-7.6,2.4c-4,0-6.3-1.3-7.6-2.4c-2.3-2.1-2.7-4.8-2.7-7.3
				v-23.4c0-2.5,0.4-5.2,2.7-7.3c1.3-1.2,3.6-2.4,7.6-2.4c2.3,0,5.4,0.4,7.6,2.4c2.5,2.2,2.7,4.7,2.7,7.3V242.6z M198.4,219.1
				c0-0.5-0.1-1.5-0.2-2.1c-0.4-1.1-1.2-1.3-1.9-1.3c-0.7,0-1.5,0.1-1.9,1.3c-0.2,0.5-0.2,1.5-0.2,2.1v23.7c0,0.5,0.1,1.5,0.2,2.1
				c0.4,1.1,1.4,1.3,1.9,1.3c0.5,0,1.5-0.1,1.9-1.3c0.2-0.5,0.2-1.6,0.2-2.1V219.1z"/>
			<linearGradient id="SVGID_14_" gradientUnits="userSpaceOnUse" x1="10.9917" y1="242.1058" x2="349.9917" y2="224.1058">
				<stop  offset="0" style="stop-color:#03B5B8"/>
				<stop  offset="1" style="stop-color:#07D896"/>
			</linearGradient>
			<path class="st13" d="M223.8,251.8l-5.8-21.6h-0.2l0.4,4.8v16.9h-7.6v-41.7h7.3l5.8,22.4h0.2l-0.5-4.4v-17.9h7.6v41.7H223.8z"/>
			<linearGradient id="SVGID_15_" gradientUnits="userSpaceOnUse" x1="11.085" y1="243.8636" x2="350.0851" y2="225.8636">
				<stop  offset="0" style="stop-color:#03B5B8"/>
				<stop  offset="1" style="stop-color:#07D896"/>
			</linearGradient>
			<path class="st14" d="M252.5,251.8v-35.9h-5.1v-5.8h18.5v5.8h-5.1v35.9H252.5z"/>
			<linearGradient id="SVGID_16_" gradientUnits="userSpaceOnUse" x1="11.1566" y1="245.2112" x2="350.1566" y2="227.2112">
				<stop  offset="0" style="stop-color:#03B5B8"/>
				<stop  offset="1" style="stop-color:#07D896"/>
			</linearGradient>
			<path class="st15" d="M281.5,251.8c-0.5-0.8-1.1-2.2-1.1-4.9v-10c0-0.7,0.1-2-0.6-2.7c-0.4-0.4-1.4-0.7-2.1-0.7h-1.1v18.2h-8.3
				l0.1-41.7h13.8c1.4,0,4.1,0.2,5.8,2.6c1,1.4,1.1,2.7,1.1,4.1v8.5c0,1.1-0.2,2.6-2,3.6c-0.8,0.4-2.6,1-3.4,1.1v0.4
				c0.4,0.1,2,0.7,2.9,1.3c2.3,1.5,2.1,3.9,2.1,5.3v8.9c0,3.9,0.3,5,2.1,5.5v0.4H281.5z M278.2,227.3c0.7,0,1.3-0.1,1.8-0.6
				c0.8-0.8,0.8-1.9,0.8-2.7v-4.8c0-1.3-0.2-1.9-0.4-2.2c-0.5-1.1-1.3-1.1-2-1.1h-2v11.4H278.2z"/>
			<linearGradient id="SVGID_17_" gradientUnits="userSpaceOnUse" x1="11.2072" y1="246.1643" x2="350.2072" y2="228.1643">
				<stop  offset="0" style="stop-color:#03B5B8"/>
				<stop  offset="1" style="stop-color:#07D896"/>
			</linearGradient>
			<path class="st16" d="M293.4,210.1h8.2v41.7h-8.2V210.1z"/>
			<linearGradient id="SVGID_18_" gradientUnits="userSpaceOnUse" x1="11.2421" y1="246.8207" x2="350.2421" y2="228.8207">
				<stop  offset="0" style="stop-color:#03B5B8"/>
				<stop  offset="1" style="stop-color:#07D896"/>
			</linearGradient>
			<path class="st17" d="M305.8,251.8v-41.7h12.5c3,0,5.4,1.1,6.7,2.5c1.7,1.9,1.6,4.8,1.6,6.6v6.3c0,1.9,0.1,4.9-1.7,6.9
				c-1.8,2-4.8,2.1-7,2.2c-1.5,0.1-2.4,0.1-3.9-0.3v17.5H305.8z M316,228.5c0.9,0,1.5-0.2,2-1.2c0.1-0.3,0.3-1,0.3-2.9v-4.7
				c0-1.5-0.2-2.3-0.5-2.8c-0.3-0.5-0.9-0.9-1.7-0.9H314v12.5H316z"/>
		</g>
	</g>
</g>
<g id="_x32_1б">
</g>
<g id="Layer_24">
</g>
<g id="Layer_25">
</g>
<g id="Layer_26">
</g>
<g id="Layer_27">
</g>
<g id="Layer_28">
</g>
<g id="Layer_29">
</g>
<g id="Layer_30">
</g>
<g id="Layer_31">
</g>
<g id="Layer_32">
</g>
<g id="Layer_33">
</g>
<g id="Layer_34">
</g>
<g id="Layer_35">
</g>
<g id="Layer_36">
</g>
<g id="Layer_37">
</g>
<g id="Layer_38">
</g>
<g id="Layer_39">
</g>
<g id="Layer_40">
</g>
<g id="Layer_47">
</g>
<g id="Layer_54">
</g>
<g id="Layer_55">
</g>
<g id="Layer_56">
</g>
</svg>
